<svg width="40" height="40" viewBox="0 0 40 40" fill="none" xmlns="http://www.w3.org/2000/svg">
<path d="M19.4865 30.1079C19.4865 24.8606 23.7404 20.6067 28.9878 20.6067C30.0284 20.6067 31.0289 20.7764 31.9659 21.0856C32.1929 19.884 32.31 18.647 32.31 17.3839V8.26748C32.31 7.74732 31.9137 7.31295 31.3959 7.26529C26.1784 6.78436 21.2901 4.45092 17.6314 0.694668C17.2361 0.289043 16.5843 0.289512 16.1895 0.694668C12.5306 4.45092 7.6423 6.78436 2.4248 7.26529C1.90699 7.31295 1.51074 7.74732 1.51074 8.26748V17.3839C1.51074 24.233 4.92809 30.3203 10.8865 34.0854L15.9957 37.3142C16.5518 37.6648 17.2703 37.665 17.8253 37.3137L21.0261 35.2911C20.0537 33.8001 19.4865 32.0208 19.4865 30.1079Z" fill="#F9D87A"/>
<path d="M19.4864 30.1077C19.4864 24.8603 23.7403 20.6064 28.9877 20.6064C29.3281 20.6064 29.6641 20.6252 29.9952 20.66C30.1939 19.5958 30.2969 18.5009 30.2969 17.3836V9.1675C25.2814 8.51016 20.5903 6.28156 16.9102 2.80859C13.23 6.28156 8.53891 8.51016 3.52344 9.1675V17.3836C3.52344 23.5277 6.59906 28.995 11.9617 32.3834L16.9102 35.5105L20.1081 33.4897C19.7077 32.4386 19.4864 31.2992 19.4864 30.1077Z" fill="#FACB35"/>
<path d="M23.7189 14.1414C23.275 13.6975 22.5523 13.6977 22.1084 14.1416L15.757 20.4932L12.7564 17.4924C12.5417 17.2779 12.2558 17.1597 11.9513 17.1597C11.6467 17.1597 11.3606 17.278 11.1459 17.4925C10.9309 17.7075 10.8125 17.9933 10.8125 18.2974C10.8125 18.6016 10.9309 18.8875 11.1459 19.1025L14.9517 22.9083C15.1667 23.1233 15.4528 23.2418 15.7569 23.2418C16.0611 23.2418 16.3472 23.1233 16.5622 22.9082L23.7189 15.7516C24.1628 15.308 24.1628 14.5855 23.7189 14.1414Z" fill="#EDF4FC"/>
<path d="M28.9876 39.608C34.235 39.608 38.4888 35.3541 38.4888 30.1067C38.4888 24.8593 34.235 20.6055 28.9876 20.6055C23.7402 20.6055 19.4863 24.8593 19.4863 30.1067C19.4863 35.3541 23.7402 39.608 28.9876 39.608Z" fill="#FC3850"/>
<path d="M28.9878 37.8077C33.1858 37.8077 36.5889 34.4045 36.5889 30.2066C36.5889 26.0086 33.1858 22.6055 28.9878 22.6055C24.7898 22.6055 21.3867 26.0086 21.3867 30.2066C21.3867 34.4045 24.7898 37.8077 28.9878 37.8077Z" fill="#EDF4FC"/>
<path d="M28.9877 39.9989C23.5332 39.9989 19.0957 35.5614 19.0957 30.1069C19.0957 24.6523 23.5332 20.2148 28.9877 20.2148C34.4421 20.2148 38.8796 24.6523 38.8796 30.1069C38.8796 35.5614 34.4423 39.9989 28.9877 39.9989ZM28.9877 20.9962C23.9641 20.9962 19.877 25.0833 19.877 30.107C19.877 35.1308 23.9641 39.2177 28.9877 39.2177C34.0113 39.2177 38.0984 35.1306 38.0984 30.1069C38.0984 25.0831 34.0115 20.9962 28.9877 20.9962Z" fill="black"/>
<path d="M28.9878 38.1981C24.5811 38.1981 20.9961 34.6131 20.9961 30.2066C20.9961 25.7998 24.5811 22.2148 28.9878 22.2148C33.3944 22.2148 36.9794 25.7998 36.9794 30.2066C36.9795 34.613 33.3945 38.1981 28.9878 38.1981ZM28.9878 22.9959C25.012 22.9959 21.7773 26.2306 21.7773 30.2064C21.7773 34.1822 25.012 37.4167 28.9878 37.4167C32.9636 37.4167 36.1981 34.1822 36.1981 30.2064C36.1981 26.2306 32.9638 22.9959 28.9878 22.9959Z" fill="black"/>
<path d="M24.4347 25.9442C24.3347 25.9442 24.2349 25.9061 24.1585 25.8298L23.4368 25.1082C23.2841 24.9557 23.2841 24.7084 23.4368 24.5559C23.5894 24.4032 23.8366 24.4032 23.9893 24.5559L24.711 25.2775C24.8636 25.43 24.8636 25.6773 24.711 25.8298C24.6347 25.9061 24.5347 25.9442 24.4347 25.9442Z" fill="black"/>
<path d="M34.289 35.7976C34.189 35.7976 34.089 35.7595 34.0127 35.6832L33.4651 35.1356C33.3124 34.9829 33.3124 34.7357 33.4651 34.5832C33.6176 34.4306 33.8651 34.4306 34.0174 34.5832L34.5651 35.1309C34.7177 35.2836 34.7177 35.5307 34.5651 35.6832C34.489 35.7595 34.3888 35.7976 34.289 35.7976Z" fill="black"/>
<path d="M22.507 30.5977H21.4863C21.2705 30.5977 21.0957 30.4228 21.0957 30.207C21.0957 29.9912 21.2705 29.8164 21.4863 29.8164H22.507C22.7227 29.8164 22.8976 29.9912 22.8976 30.207C22.8976 30.4228 22.7227 30.5977 22.507 30.5977Z" fill="black"/>
<path d="M36.4884 30.5977H35.668C35.4522 30.5977 35.2773 30.4228 35.2773 30.207C35.2773 29.9912 35.4522 29.8164 35.668 29.8164H36.4884C36.7042 29.8164 36.8791 29.9912 36.8791 30.207C36.8791 30.4228 36.7042 30.5977 36.4884 30.5977Z" fill="black"/>
<path d="M28.9883 38.0987C28.7725 38.0987 28.5977 37.9239 28.5977 37.7081V36.6875C28.5977 36.4717 28.7725 36.2969 28.9883 36.2969C29.2041 36.2969 29.3789 36.4717 29.3789 36.6875V37.7081C29.3789 37.9239 29.2041 38.0987 28.9883 38.0987Z" fill="black"/>
<path d="M28.9883 23.9181C28.7725 23.9181 28.5977 23.7433 28.5977 23.5275V22.707C28.5977 22.4912 28.7725 22.3164 28.9883 22.3164C29.2041 22.3164 29.3789 22.4912 29.3789 22.707V23.5275C29.3789 23.7433 29.2041 23.9181 28.9883 23.9181Z" fill="black"/>
<path d="M23.6836 35.9012C23.5836 35.9012 23.4836 35.8631 23.4073 35.7868C23.2548 35.6342 23.2548 35.3868 23.4073 35.2345L24.1291 34.5129C24.2816 34.3603 24.5289 34.3603 24.6816 34.5129C24.8341 34.6656 24.8341 34.9129 24.6816 35.0653L23.9598 35.7868C23.8836 35.8631 23.7836 35.9012 23.6836 35.9012Z" fill="black"/>
<path d="M33.712 25.8732C33.612 25.8732 33.5122 25.8351 33.4358 25.7589C33.2831 25.6064 33.2831 25.359 33.4358 25.2065L34.0159 24.6262C34.1686 24.4736 34.4158 24.4736 34.5684 24.6262C34.7211 24.7787 34.7211 25.0261 34.5684 25.1786L33.9883 25.7589C33.912 25.835 33.812 25.8732 33.712 25.8732Z" fill="black"/>
<path d="M31.9545 30.5977H28.5801C28.3643 30.5977 28.1895 30.4228 28.1895 30.207C28.1895 29.9912 28.3643 29.8164 28.5801 29.8164H31.9545C32.1702 29.8164 32.3451 29.9912 32.3451 30.207C32.3451 30.4228 32.1702 30.5977 31.9545 30.5977Z" fill="black"/>
<path d="M29.0098 31.0708C28.794 31.0708 28.6191 30.8959 28.6191 30.6802V25.5195C28.6191 25.3037 28.794 25.1289 29.0098 25.1289C29.2255 25.1289 29.4004 25.3037 29.4004 25.5195V30.6802C29.4004 30.8959 29.2255 31.0708 29.0098 31.0708Z" fill="black"/>
<path d="M16.9107 37.9673C16.52 37.9673 16.129 37.8598 15.7876 37.6447L10.6779 34.4156C4.60371 30.5778 1.12012 24.3698 1.12012 17.3839V8.2675C1.12012 7.54094 1.66559 6.94281 2.38902 6.87641C7.51371 6.40406 12.3154 4.11188 15.9095 0.422187C16.1748 0.15 16.5301 0 16.9104 0C17.2906 0 17.6461 0.149844 17.9112 0.422187C21.5053 4.11172 26.307 6.40391 31.4318 6.87641C32.1551 6.94297 32.7007 7.54094 32.7007 8.2675V17.3839C32.7007 18.6558 32.5828 19.9256 32.3498 21.1581C32.3289 21.2688 32.2614 21.365 32.1643 21.422C32.0675 21.4792 31.9504 21.4916 31.8436 21.4566C30.9203 21.1519 29.9595 20.9973 28.9879 20.9973C23.9643 20.9973 19.8771 25.0844 19.8771 30.1081C19.8771 31.8787 20.3876 33.5972 21.3534 35.0777C21.4106 35.1653 21.4301 35.2722 21.4079 35.3742C21.3856 35.4764 21.3232 35.5655 21.235 35.6213L18.0342 37.6437C17.6932 37.8595 17.3021 37.9673 16.9107 37.9673ZM16.9104 0.78125C16.7429 0.78125 16.5862 0.847344 16.4693 0.967188C12.7456 4.79 7.77059 7.16469 2.46074 7.65422C2.14184 7.68359 1.90137 7.94719 1.90137 8.2675V17.3839C1.90137 24.0963 5.25246 30.0633 11.0953 33.7552L16.2045 36.9839C16.6339 37.2544 17.1882 37.2542 17.6165 36.9834L20.4892 35.1683C19.5765 33.6391 19.0959 31.898 19.0959 30.108C19.0959 24.6536 23.5334 20.2159 28.9879 20.2159C29.8928 20.2159 30.789 20.3394 31.6582 20.5834C31.8317 19.5339 31.9195 18.4597 31.9195 17.3837V8.2675C31.9195 7.94719 31.679 7.68359 31.3603 7.65422C26.0503 7.16469 21.0753 4.79 17.3517 0.967188C17.2346 0.847344 17.0779 0.78125 16.9104 0.78125Z" fill="black"/>
<path d="M16.91 35.9011C16.8375 35.9011 16.765 35.8809 16.7014 35.8406L11.753 32.7136C6.27469 29.2522 3.13281 23.6645 3.13281 17.3836V9.1675C3.13281 8.97141 3.27828 8.80578 3.47266 8.78016C8.44141 8.12891 12.9953 5.96563 16.642 2.52437C16.7925 2.3825 17.0278 2.3825 17.1783 2.52437C20.825 5.96563 25.3789 8.12891 30.3477 8.78016C30.5422 8.80562 30.6875 8.97141 30.6875 9.1675V17.3836C30.6875 18.5095 30.5838 19.6361 30.3791 20.7319C30.3416 20.9319 30.1567 21.0675 29.9541 21.0486C29.6298 21.0144 29.3047 20.997 28.9875 20.997C23.9639 20.997 19.8767 25.0841 19.8767 30.1078C19.8767 31.2214 20.0773 32.3123 20.473 33.3505C20.5392 33.5242 20.4737 33.7205 20.3167 33.8198L17.1188 35.8408C17.0548 35.8809 16.9823 35.9011 16.91 35.9011ZM3.91391 9.50797V17.3836C3.91391 23.3909 6.92328 28.738 12.1702 32.0533L16.9098 35.0484L19.6334 33.3272C19.2762 32.2909 19.0953 31.2095 19.0953 30.1078C19.0953 24.6534 23.5328 20.2158 28.9873 20.2158C29.213 20.2158 29.4422 20.2239 29.6722 20.2398C29.8273 19.3016 29.9059 18.3423 29.9059 17.3836V9.50797C25.0258 8.80016 20.5469 6.675 16.9098 3.34203C13.2731 6.675 8.79406 8.8 3.91391 9.50797Z" fill="black"/>
<path d="M15.7569 23.6324C15.3484 23.6324 14.9644 23.4733 14.6755 23.1847L10.8697 19.3788C10.5809 19.09 10.4219 18.706 10.4219 18.2974C10.4219 17.8891 10.5809 17.505 10.8697 17.2163C11.1583 16.9278 11.5423 16.7691 11.9511 16.7691C12.3602 16.7691 12.7441 16.9278 13.0325 17.216L15.7569 19.9406L21.832 13.8652C22.4284 13.2689 23.3987 13.2689 23.9948 13.865C24.5911 14.4613 24.5911 15.4316 23.9948 16.0278L16.8381 23.1844C16.5497 23.4731 16.1656 23.6324 15.7569 23.6324ZM11.9511 17.5502C11.7508 17.5502 11.563 17.6278 11.4219 17.7686C11.2808 17.9097 11.203 18.0974 11.203 18.2972C11.203 18.4971 11.2808 18.6849 11.4219 18.8263L15.2277 22.6321C15.3689 22.7731 15.5567 22.851 15.7567 22.851C15.9567 22.851 16.1445 22.7731 16.2856 22.6319L23.4425 15.4753C23.7341 15.1838 23.7341 14.7091 23.4423 14.4174C23.1508 14.1258 22.6761 14.126 22.3844 14.4175L16.033 20.7691C15.8864 20.9156 15.6272 20.9156 15.4805 20.7691L12.4798 17.7683C12.3394 17.6277 12.1516 17.5502 11.9511 17.5502Z" fill="black"/>
</svg>
