<svg width="40" height="40" viewBox="0 0 40 40" fill="none" xmlns="http://www.w3.org/2000/svg">
<g clip-path="url(#clip0_5_3755)">
<path d="M7.65902 9.88281C7.50684 11.6897 5.62402 11.975 5.62402 11.975C7.24074 12.0511 7.64355 14.1717 7.64355 14.1717C7.67809 12.6597 9.72496 11.9527 9.72496 11.9527C8.19168 11.8608 7.65902 9.88281 7.65902 9.88281Z" fill="#D7E057"/>
<path d="M9.73887 11.7186C8.3945 11.6381 7.89012 9.83983 7.88528 9.82154C7.85559 9.71186 7.75216 9.63936 7.63778 9.64936C7.5245 9.65967 7.43497 9.74967 7.42544 9.86295C7.29106 11.4592 5.65778 11.7325 5.58887 11.7433C5.46966 11.7612 5.38372 11.8667 5.38997 11.9872C5.39622 12.1075 5.49262 12.2034 5.61309 12.2092C7.02356 12.2756 7.40966 14.1964 7.41325 14.2158C7.43481 14.3269 7.532 14.4059 7.64341 14.4059C7.64997 14.4059 7.65653 14.4058 7.66309 14.4051C7.78262 14.3951 7.87512 14.2969 7.87794 14.1772C7.90809 12.8476 9.78278 12.1808 9.80169 12.1742C9.90731 12.1375 9.97231 12.0314 9.957 11.9208C9.94169 11.8098 9.85044 11.7253 9.73887 11.7186ZM7.61919 13.3351C7.40731 12.8459 7.03981 12.2559 6.43387 11.9481C6.89184 11.7286 7.43512 11.3367 7.71528 10.6556C7.95762 11.1355 8.37153 11.7306 9.01747 12.0184C8.54747 12.2747 7.93575 12.7067 7.61919 13.3351Z" fill="#3A312A"/>
<path d="M4.26848 12.5352C4.16082 13.8131 2.8291 14.015 2.8291 14.015C3.97254 14.0688 4.25754 15.5688 4.25754 15.5688C4.28191 14.4994 5.72973 13.9992 5.72973 13.9992C4.64504 13.9342 4.26848 12.5352 4.26848 12.5352Z" fill="#D7E057"/>
<path d="M5.74364 13.7651C4.8427 13.7112 4.49801 12.4861 4.49458 12.4737C4.46505 12.3641 4.36036 12.2925 4.24755 12.3016C4.13411 12.3117 4.04442 12.402 4.03489 12.5153C3.94458 13.5889 2.8402 13.7758 2.79411 13.7831C2.67489 13.8011 2.5888 13.9066 2.59505 14.027C2.6013 14.1473 2.6977 14.2433 2.81817 14.2491C3.76098 14.2934 4.02489 15.5997 4.02723 15.6125C4.04848 15.7239 4.14583 15.8031 4.25739 15.8031C4.2638 15.8031 4.27036 15.8028 4.27692 15.8023C4.39645 15.7925 4.48911 15.6939 4.49192 15.5741C4.51223 14.6819 5.79364 14.225 5.8063 14.2206C5.91192 14.1841 5.97708 14.078 5.96192 13.9672C5.94661 13.8564 5.8552 13.7717 5.74364 13.7651ZM4.24598 14.8267C4.10161 14.5322 3.88036 14.21 3.5513 14.0017C3.84114 13.8391 4.12895 13.5909 4.31223 13.2336C4.47755 13.5264 4.72692 13.8514 5.08426 14.0497C4.7952 14.2219 4.46098 14.478 4.24598 14.8267Z" fill="#3A312A"/>
<path d="M4.26848 8.37109C4.16082 9.64906 2.8291 9.85094 2.8291 9.85094C3.97254 9.90469 4.25754 11.4047 4.25754 11.4047C4.28191 10.3352 5.72973 9.83516 5.72973 9.83516C4.64504 9.77016 4.26848 8.37109 4.26848 8.37109Z" fill="#D7E057"/>
<path d="M5.74364 9.60077C4.8427 9.54687 4.49801 8.32187 4.49458 8.30952C4.46505 8.19984 4.36036 8.12843 4.24755 8.13749C4.13411 8.14765 4.04442 8.23796 4.03489 8.35124C3.94458 9.42484 2.8402 9.61171 2.79411 9.61905C2.67489 9.63702 2.5888 9.74249 2.59505 9.86296C2.6013 9.98327 2.6977 10.0792 2.81817 10.085C3.76098 10.1294 4.02489 11.4355 4.02723 11.4483C4.04848 11.5595 4.14583 11.6389 4.25739 11.6389C4.2638 11.6389 4.27036 11.6386 4.27692 11.6381C4.39645 11.6283 4.48911 11.5297 4.49192 11.4098C4.51223 10.5178 5.79364 10.0608 5.8063 10.0564C5.91192 10.0198 5.97708 9.91374 5.96192 9.80296C5.94661 9.69202 5.8552 9.60749 5.74364 9.60077ZM4.24598 10.6625C4.10161 10.3678 3.88036 10.0458 3.5513 9.83749C3.84114 9.67484 4.12895 9.42671 4.31223 9.06937C4.47755 9.36218 4.72692 9.68718 5.08426 9.88546C4.7952 10.0575 4.46098 10.3137 4.24598 10.6625Z" fill="#3A312A"/>
<path d="M36.2559 13.4236C35.9939 13.4236 35.7503 13.5014 35.5456 13.6342C35.5457 13.627 35.5467 13.62 35.5467 13.6128C35.5467 12.8903 34.9611 12.3047 34.2386 12.3047C33.5161 12.3047 32.9304 12.8903 32.9304 13.6128C32.9304 13.6202 32.9314 13.627 32.9315 13.6342C32.7268 13.5016 32.4832 13.4236 32.2212 13.4236C31.4987 13.4236 30.9131 14.0092 30.9131 14.7317C30.9131 15.4489 31.4903 16.0305 32.2054 16.0391V16.0398H36.2717V16.0391C36.9868 16.0305 37.564 15.4489 37.564 14.7317C37.564 14.0094 36.9784 13.4236 36.2559 13.4236Z" fill="#8AC6DD"/>
<path d="M36.2559 13.1892C36.0804 13.1892 35.9076 13.2191 35.7443 13.2769C35.5906 12.5873 34.9739 12.0703 34.2386 12.0703C33.5032 12.0703 32.8867 12.5873 32.7328 13.2769C32.5693 13.2191 32.3967 13.1892 32.2212 13.1892C31.3707 13.1892 30.6787 13.8812 30.6787 14.7317C30.6787 15.5648 31.3512 16.2519 32.182 16.2731C32.1896 16.2739 32.1976 16.2742 32.2054 16.2742H36.2715C36.2795 16.2742 36.2873 16.2739 36.295 16.2731C37.1257 16.252 37.7982 15.5648 37.7982 14.7317C37.7984 13.8812 37.1064 13.1892 36.2559 13.1892ZM36.2687 15.8047C36.2634 15.8048 36.2581 15.805 36.2528 15.8055H32.2246C32.2193 15.805 32.2139 15.8048 32.2084 15.8047C31.6234 15.7977 31.1475 15.3164 31.1475 14.7317C31.1475 14.1397 31.6292 13.658 32.2212 13.658C32.4281 13.658 32.6295 13.7177 32.804 13.8308C32.8764 13.8773 32.9682 13.8809 33.0434 13.84C33.1189 13.7991 33.1659 13.72 33.1659 13.6341C33.1659 13.6245 33.1654 13.6152 33.1648 13.6127C33.1648 13.0206 33.6465 12.5389 34.2386 12.5389C34.8306 12.5389 35.3123 13.0206 35.3123 13.608C35.312 13.6117 35.3114 13.6253 35.3112 13.6291C35.3093 13.7158 35.3556 13.7966 35.4315 13.8388C35.5073 13.8811 35.6003 13.878 35.6732 13.8308C35.8476 13.7177 36.049 13.658 36.2559 13.658C36.8479 13.658 37.3296 14.1397 37.3296 14.7317C37.3296 15.3164 36.8537 15.7978 36.2687 15.8047Z" fill="#3A312A"/>
<path d="M13.8106 3.68922C13.5486 3.68922 13.305 3.76703 13.1003 3.89984C13.1004 3.89266 13.1014 3.88563 13.1014 3.87844C13.1014 3.15594 12.5157 2.57031 11.7932 2.57031C11.0707 2.57031 10.4851 3.15594 10.4851 3.87844C10.4851 3.88578 10.4861 3.89266 10.4862 3.89984C10.2815 3.76719 10.0379 3.68922 9.7759 3.68922C9.0534 3.68922 8.46777 4.27484 8.46777 4.99734C8.46777 5.71453 9.04496 6.29609 9.76012 6.30469V6.30547H13.8264V6.30469C14.5415 6.29609 15.1187 5.71453 15.1187 4.99734C15.1187 4.27484 14.5331 3.68922 13.8106 3.68922Z" fill="#8AC6DD"/>
<path d="M13.8106 3.45484C13.6351 3.45484 13.4623 3.48469 13.299 3.5425C13.1453 2.85297 12.5286 2.33594 11.7932 2.33594C11.0579 2.33594 10.4414 2.85297 10.2875 3.5425C10.124 3.48469 9.95137 3.45484 9.7759 3.45484C8.92543 3.45484 8.2334 4.14688 8.2334 4.99734C8.2334 5.83047 8.9059 6.5175 9.73668 6.53859C9.74449 6.53937 9.7523 6.53969 9.76012 6.53969H13.8262C13.8342 6.53969 13.842 6.53937 13.8495 6.53859C14.6804 6.51766 15.3529 5.83047 15.3529 4.99734C15.3531 4.14688 14.6611 3.45484 13.8106 3.45484ZM13.8236 6.07031C13.8181 6.07047 13.8128 6.07062 13.8073 6.07109H9.77918C9.77387 6.07062 9.7684 6.07047 9.76277 6.07031C9.17793 6.06344 8.70199 5.58203 8.70199 4.99734C8.70199 4.40531 9.18371 3.92359 9.77574 3.92359C9.98262 3.92359 10.184 3.98328 10.3586 4.09641C10.4315 4.14344 10.5245 4.14672 10.6003 4.10437C10.6761 4.06219 10.7223 3.98141 10.7206 3.89469L10.7195 3.87828C10.7195 3.28625 11.2012 2.80453 11.7932 2.80453C12.3853 2.80453 12.867 3.28625 12.8671 3.87156C12.8667 3.8775 12.8659 3.89391 12.8659 3.89984C12.8659 3.98578 12.9129 4.06484 12.9884 4.10578C13.0636 4.14672 13.1556 4.14328 13.2278 4.09656C13.4021 3.98344 13.6036 3.92375 13.8104 3.92375C14.4025 3.92375 14.8842 4.40547 14.8842 4.9975C14.8843 5.58203 14.4084 6.06344 13.8236 6.07031Z" fill="#3A312A"/>
<path d="M25.3838 7.98609C25.1216 7.98609 24.8782 8.06391 24.6735 8.19672C24.6737 8.18953 24.6746 8.1825 24.6746 8.17531C24.6746 7.45281 24.089 6.86719 23.3665 6.86719C22.644 6.86719 22.0584 7.45281 22.0584 8.17531C22.0584 8.1825 22.0593 8.18953 22.0595 8.19672C21.8548 8.06406 21.6112 7.98609 21.3491 7.98609C20.6266 7.98609 20.041 8.57172 20.041 9.29422C20.041 10.0114 20.6182 10.593 21.3334 10.6016V10.6023H25.3996V10.6016C26.1148 10.593 26.692 10.0114 26.692 9.29422C26.692 8.57187 26.1063 7.98609 25.3838 7.98609Z" fill="#8AC6DD"/>
<path d="M25.384 7.75187C25.2085 7.75187 25.0357 7.78172 24.8723 7.83937C24.7185 7.14984 24.1016 6.63281 23.3665 6.63281C22.6313 6.63281 22.0146 7.14984 21.8607 7.83937C21.6973 7.78156 21.5246 7.75187 21.3491 7.75187C20.4987 7.75187 19.8066 8.44391 19.8066 9.29437C19.8066 10.1275 20.4791 10.8145 21.3099 10.8356C21.3177 10.8364 21.3255 10.8367 21.3334 10.8367H25.3995C25.4074 10.8367 25.4152 10.8364 25.4229 10.8356C26.2538 10.8147 26.9263 10.1275 26.9263 9.29437C26.9265 8.44391 26.2345 7.75187 25.384 7.75187ZM25.397 10.3673C25.3915 10.3675 25.3862 10.3677 25.3807 10.3681H21.3526C21.3473 10.3677 21.3418 10.3675 21.3362 10.3673C20.7513 10.3605 20.2754 9.87906 20.2754 9.29437C20.2754 8.70234 20.7571 8.22062 21.3491 8.22062C21.556 8.22062 21.7576 8.28031 21.9318 8.39344C22.0048 8.44078 22.0977 8.44375 22.1735 8.40156C22.2493 8.35922 22.2955 8.27859 22.2938 8.19187L22.2927 8.17547C22.2927 7.58344 22.7745 7.10172 23.3665 7.10172C23.9585 7.10172 24.4402 7.58344 24.4402 8.17078C24.4399 8.17453 24.4393 8.18812 24.4391 8.19187C24.4373 8.27859 24.4835 8.35938 24.5595 8.40156C24.6354 8.44375 24.7282 8.44062 24.8012 8.39344C24.9754 8.28031 25.177 8.22062 25.384 8.22062C25.976 8.22062 26.4577 8.70234 26.4577 9.29437C26.4577 9.87906 25.9818 10.3605 25.397 10.3673Z" fill="#3A312A"/>
<path d="M32.3947 24.8906C32.3181 24.8828 32.2416 24.8781 32.165 24.875C32.0572 24.8687 31.9494 24.8656 31.84 24.8656L26.0337 19.4016L24.7087 18.1547C24.3384 17.8578 23.8759 17.6953 23.4009 17.6953H7.47734C6.60859 17.6953 5.82891 18.2328 5.51953 19.0437L5.26984 19.6991L4.50141 21.7158L4.06672 22.8567L3.43828 24.5062C3.34766 24.7437 3.30078 24.9969 3.30078 25.2516V31.4747H38.1258V31.1531C38.1258 27.8688 35.6072 25.1703 32.3947 24.8906Z" fill="#F16C7A"/>
<path d="M32.4176 24.6575C32.3364 24.6492 32.2551 24.6442 32.1778 24.6411C32.0964 24.6364 32.015 24.6334 31.9329 24.632L24.8687 17.9841C24.8642 17.9798 24.8593 17.9758 24.8546 17.9719C24.4436 17.6423 23.927 17.4609 23.4001 17.4609H7.47652C6.51684 17.4609 5.64199 18.0634 5.2998 18.9603L5.05012 19.6156C5.00402 19.7366 5.06465 19.872 5.18559 19.9181C5.30637 19.9641 5.44215 19.9036 5.48809 19.7825L5.73777 19.1273C6.01121 18.4111 6.70996 17.9298 7.47668 17.9298H23.4001C23.8178 17.9298 24.2273 18.0727 24.5543 18.3322L31.6786 25.0366C31.722 25.0775 31.7795 25.1003 31.8392 25.1003C31.944 25.1003 32.0473 25.1033 32.1546 25.1095C32.2265 25.1125 32.2984 25.1169 32.3736 25.1244C35.4673 25.3939 37.8906 28.042 37.8906 31.1534V31.2406H3.53434V25.2517C3.53434 25.0252 3.57543 24.8027 3.65637 24.5898L4.71965 21.7994C4.76574 21.6784 4.70512 21.543 4.58418 21.4969C4.4634 21.4509 4.32777 21.5116 4.28168 21.6325L3.2184 24.423C3.11699 24.6892 3.06543 24.968 3.06543 25.2517V31.4748C3.06543 31.6044 3.17043 31.7092 3.2998 31.7092H38.1248C38.2542 31.7092 38.3592 31.6044 38.3592 31.4748V31.1533C38.3593 27.8009 35.7479 24.9475 32.4176 24.6575Z" fill="#3A312A"/>
<path d="M16.4883 19.4219H7.66908C7.32361 19.4219 7.01533 19.6391 6.89923 19.9645L5.5297 23.8017C5.3397 24.3341 5.73439 24.8939 6.29955 24.8939H16.4883C16.9699 24.8939 17.3603 24.5034 17.3603 24.0219V20.2939C17.3603 19.8123 16.9699 19.4219 16.4883 19.4219Z" fill="#8AC6DD"/>
<path d="M16.4886 19.1877H15.5037C15.3744 19.1877 15.2694 19.2925 15.2694 19.422C15.2694 19.5516 15.3744 19.6564 15.5037 19.6564H16.4887C16.8403 19.6564 17.1264 19.9423 17.1264 20.2941V24.022C17.1264 24.3736 16.8403 24.6597 16.4887 24.6597H6.29983C6.10764 24.6597 5.93389 24.5695 5.82311 24.4125C5.71248 24.2555 5.68592 24.0616 5.75061 23.8806L7.1203 20.0433C7.2028 19.8119 7.42342 19.6562 7.66936 19.6562H13.2659C13.3953 19.6562 13.5003 19.5514 13.5003 19.4219C13.5003 19.2923 13.3953 19.1875 13.2659 19.1875H7.66936C7.22592 19.1875 6.8278 19.4681 6.67873 19.8858L5.30905 23.723C5.19436 24.0447 5.24326 24.4033 5.43998 24.6825C5.63686 24.9617 5.95811 25.1283 6.29983 25.1283H16.4886C17.0986 25.1283 17.595 24.632 17.595 24.0219V20.2941C17.595 19.6841 17.0987 19.1877 16.4886 19.1877Z" fill="#3A312A"/>
<path d="M26.0334 19.4023H19.9852C19.5039 19.4023 19.1133 19.793 19.1133 20.2742V24.0195C19.1133 24.5008 19.5039 24.8914 19.9852 24.8914L31.8398 24.8664L26.0334 19.4023Z" fill="#8AC6DD"/>
<path d="M32.0005 24.6958L26.1942 19.2317C26.1508 19.1908 26.0933 19.168 26.0336 19.168H19.9852C19.3752 19.168 18.8789 19.6642 18.8789 20.2742V24.0195C18.8789 24.6295 19.3752 25.1258 19.9852 25.1258H19.9856L31.8403 25.1008C31.9362 25.1006 32.0225 25.0419 32.0578 24.9525C32.0931 24.8633 32.0703 24.7616 32.0005 24.6958ZM19.9847 24.6572C19.6333 24.657 19.3475 24.3711 19.3475 24.0197V20.2744C19.3475 19.9228 19.6334 19.6369 19.985 19.6369H25.9405L31.2498 24.6333L19.9847 24.6572Z" fill="#3A312A"/>
<path d="M38.2068 31.4766H3.21887C2.77168 31.4766 2.40918 31.8391 2.40918 32.2862C2.40918 32.7334 2.77168 33.0958 3.21887 33.0958H38.2068C38.654 33.0958 39.0165 32.7333 39.0165 32.2862C39.0164 31.8391 38.654 31.4766 38.2068 31.4766Z" fill="#87796F"/>
<path d="M38.2065 31.2422H3.21887C2.64324 31.2422 2.1748 31.7105 2.1748 32.2862C2.1748 32.8619 2.64309 33.3303 3.21887 33.3303H38.2065C38.7823 33.3303 39.2506 32.862 39.2506 32.2862C39.2506 31.7106 38.7823 31.2422 38.2065 31.2422ZM38.2065 32.8616H3.21887C2.90168 32.8616 2.64355 32.6036 2.64355 32.2862C2.64355 31.9691 2.90152 31.7109 3.21887 31.7109H38.2065C38.5237 31.7109 38.7818 31.9689 38.7818 32.2862C38.7818 32.6034 38.5239 32.8616 38.2065 32.8616Z" fill="#3A312A"/>
<path d="M8.64918 37.4292C11.0297 37.4292 12.9595 35.4994 12.9595 33.1189C12.9595 30.7384 11.0297 28.8086 8.64918 28.8086C6.26866 28.8086 4.33887 30.7384 4.33887 33.1189C4.33887 35.4994 6.26866 37.4292 8.64918 37.4292Z" fill="#87796F"/>
<path d="M8.64918 28.5742C6.14324 28.5742 4.10449 30.613 4.10449 33.1189C4.10449 35.6248 6.14324 37.6636 8.64918 37.6636C11.1553 37.6636 13.194 35.6248 13.194 33.1189C13.194 30.613 11.1554 28.5742 8.64918 28.5742ZM8.64918 37.1948C6.40168 37.1948 4.57324 35.3664 4.57324 33.1189C4.57324 30.8714 6.40168 29.043 8.64918 29.043C10.8968 29.043 12.7253 30.8714 12.7253 33.1189C12.7253 35.3664 10.8968 37.1948 8.64918 37.1948Z" fill="#3A312A"/>
<path d="M9.39012 34.8769C10.3614 34.4671 10.8166 33.3475 10.4068 32.3763C9.99701 31.405 8.87743 30.9498 7.90614 31.3596C6.93485 31.7694 6.47966 32.8889 6.88945 33.8602C7.29924 34.8315 8.41883 35.2867 9.39012 34.8769Z" fill="#FCE8CB"/>
<path d="M8.64914 30.9766C7.46742 30.9766 6.50586 31.938 6.50586 33.1198C6.50586 34.3017 7.46727 35.2631 8.64914 35.2631C9.83117 35.2631 10.7926 34.3017 10.7926 33.1198C10.7926 31.938 9.83117 30.9766 8.64914 30.9766ZM8.64914 34.7945C7.72586 34.7945 6.97461 34.0433 6.97461 33.12C6.97461 32.1966 7.72586 31.4455 8.64914 31.4455C9.57258 31.4455 10.3238 32.1967 10.3238 33.12C10.3238 34.0433 9.57273 34.7945 8.64914 34.7945Z" fill="#3A312A"/>
<path d="M32.7761 37.4292C35.1567 37.4292 37.0864 35.4994 37.0864 33.1189C37.0864 30.7384 35.1567 28.8086 32.7761 28.8086C30.3956 28.8086 28.4658 30.7384 28.4658 33.1189C28.4658 35.4994 30.3956 37.4292 32.7761 37.4292Z" fill="#87796F"/>
<path d="M32.7761 28.5742C30.2702 28.5742 28.2314 30.613 28.2314 33.1189C28.2314 35.6248 30.2702 37.6636 32.7761 37.6636C35.2821 37.6636 37.3208 35.6248 37.3208 33.1189C37.3208 30.613 35.2821 28.5742 32.7761 28.5742ZM32.7761 37.1948C30.5286 37.1948 28.7002 35.3664 28.7002 33.1189C28.7002 30.8714 30.5286 29.043 32.7761 29.043C35.0236 29.043 36.8521 30.8714 36.8521 33.1189C36.8521 35.3664 35.0235 37.1948 32.7761 37.1948Z" fill="#3A312A"/>
<path d="M32.7761 35.0288C33.8304 35.0288 34.685 34.1741 34.685 33.1198C34.685 32.0656 33.8304 31.2109 32.7761 31.2109C31.7218 31.2109 30.8672 32.0656 30.8672 33.1198C30.8672 34.1741 31.7218 35.0288 32.7761 35.0288Z" fill="#FCE8CB"/>
<path d="M32.7761 30.9766C31.5944 30.9766 30.6328 31.938 30.6328 33.1198C30.6328 34.3017 31.5942 35.2631 32.7761 35.2631C33.958 35.2631 34.9195 34.3017 34.9195 33.1198C34.9194 31.938 33.958 30.9766 32.7761 30.9766ZM32.7761 34.7945C31.8528 34.7945 31.1016 34.0433 31.1016 33.12C31.1016 32.1966 31.8528 31.4455 32.7761 31.4455C33.6995 31.4455 34.4508 32.1967 34.4508 33.12C34.4506 34.0433 33.6995 34.7945 32.7761 34.7945Z" fill="#3A312A"/>
<path d="M6.82531 25.9961H5.76375C5.48 25.9961 5.25 26.2261 5.25 26.5098V27.5714C5.25 27.8552 5.48 28.0852 5.76375 28.0852H6.82531C7.10906 28.0852 7.33906 27.8552 7.33906 27.5714V26.5098C7.33906 26.2262 7.10906 25.9961 6.82531 25.9961Z" fill="#87796F"/>
<path d="M6.82531 25.7617H5.76375C5.35109 25.7617 5.01562 26.0973 5.01562 26.51V27.5716C5.01562 27.9841 5.35125 28.3197 5.76375 28.3197H6.82531C7.23797 28.3197 7.57344 27.9841 7.57344 27.5716V26.51C7.57344 26.0973 7.23781 25.7617 6.82531 25.7617ZM7.10469 27.5716C7.10469 27.7256 6.97938 27.8509 6.82531 27.8509H5.76375C5.60969 27.8509 5.48438 27.7256 5.48438 27.5716V26.51C5.48438 26.3559 5.60969 26.2305 5.76375 26.2305H6.82531C6.97938 26.2305 7.10469 26.3558 7.10469 26.51V27.5716Z" fill="#3A312A"/>
<path d="M36.709 25.9141H34.9902C34.4185 25.9141 33.9551 26.3775 33.9551 26.9492C33.9551 27.5209 34.4185 27.9844 34.9902 27.9844H36.709C37.2807 27.9844 37.7441 27.5209 37.7441 26.9492C37.7441 26.3775 37.2805 25.9141 36.709 25.9141Z" fill="#D7E057"/>
<path d="M36.709 25.6797H34.9902C34.2902 25.6797 33.7207 26.2492 33.7207 26.9492C33.7207 27.6492 34.2902 28.2188 34.9902 28.2188H36.709C37.409 28.2188 37.9785 27.6492 37.9785 26.9492C37.9785 26.2492 37.409 25.6797 36.709 25.6797ZM36.709 27.75H34.9902C34.5487 27.75 34.1895 27.3908 34.1895 26.9492C34.1895 26.5077 34.5487 26.1484 34.9902 26.1484H36.709C37.1505 26.1484 37.5098 26.5077 37.5098 26.9492C37.5098 27.3908 37.1505 27.75 36.709 27.75Z" fill="#3A312A"/>
<path d="M24.5551 18.3312C24.227 18.0719 23.8176 17.9297 23.4004 17.9297H21.0566C21.4738 17.9297 21.8832 18.0719 22.2113 18.3312L23.0988 19.1672H25.4426L24.5551 18.3312Z" fill="#D34E5C"/>
<path d="M37.0881 28.1641C36.9678 28.2016 36.8412 28.2219 36.71 28.2219H34.9912C34.9146 28.2219 34.8381 28.2156 34.7646 28.2016C34.9646 28.5531 35.1303 28.925 35.2553 29.3141C35.9756 29.7859 36.5537 30.4547 36.9131 31.2438H37.8912V31.1563C37.8912 30.0766 37.5992 29.0516 37.0881 28.1641Z" fill="#D34E5C"/>
<path d="M33.7203 26.9516C33.7203 26.4 34.0734 25.9313 34.5641 25.7563C33.8953 25.4141 33.1563 25.1937 32.3734 25.125C32.2984 25.1172 32.2266 25.1141 32.1547 25.1109C32.0469 25.1047 31.9437 25.1016 31.8406 25.1016C31.8391 25.1016 31.8391 25.1016 31.8391 25.1016L29.6875 25.1062C29.7281 25.1062 29.7687 25.1078 29.8109 25.1109C29.8828 25.1141 29.9547 25.1172 30.0297 25.125C30.8125 25.1937 31.5516 25.4141 32.2203 25.7563C31.7297 25.9313 31.3766 26.4 31.3766 26.9516C31.3766 27.65 31.9469 28.2203 32.6469 28.2203H34.3656C34.4734 28.2203 34.5781 28.2062 34.6781 28.1812C34.128 28.0422 33.7203 27.5422 33.7203 26.9516Z" fill="#D34E5C"/>
<path d="M25.9414 19.6367H23.5977L28.907 24.6336L19.9102 24.6523C19.9336 24.6555 19.9602 24.657 19.9852 24.657L31.2508 24.6336L25.9414 19.6367Z" fill="#6CA8BF"/>
<path d="M2.32781 22.1875H1.95641C1.41953 22.1875 0.984375 22.6227 0.984375 23.1595V29.7309C0.984375 30.2678 1.41953 30.703 1.95641 30.703H2.32781C2.86469 30.703 3.29984 30.2678 3.29984 29.7309V23.1595C3.3 22.6227 2.86469 22.1875 2.32781 22.1875Z" fill="#87796F"/>
<path d="M2.32797 21.9531H1.95641C1.29125 21.9531 0.75 22.4944 0.75 23.1595V29.7311C0.75 30.3963 1.29125 30.9375 1.95641 30.9375H2.32797C2.99312 30.9375 3.53437 30.3963 3.53437 29.7311V23.1595C3.53437 22.4944 2.99312 21.9531 2.32797 21.9531ZM3.06563 29.7311C3.06563 30.1378 2.73469 30.4688 2.32797 30.4688H1.95641C1.54969 30.4688 1.21875 30.1378 1.21875 29.7311V23.1595C1.21875 22.7528 1.54969 22.4219 1.95641 22.4219H2.32797C2.73469 22.4219 3.06563 22.7528 3.06563 23.1595V29.7311Z" fill="#3A312A"/>
<path d="M3.0898 25.9141H2.32715V27.9844H3.0898C3.66152 27.9844 4.12496 27.5209 4.12496 26.9492C4.12496 26.3775 3.66137 25.9141 3.0898 25.9141Z" fill="#D7E057"/>
<path d="M3.0898 25.6797H2.32715C2.19777 25.6797 2.09277 25.7845 2.09277 25.9141V27.9844C2.09277 28.1139 2.19777 28.2188 2.32715 28.2188H3.0898C3.78996 28.2188 4.35934 27.6492 4.35934 26.9492C4.35934 26.2492 3.78996 25.6797 3.0898 25.6797ZM3.0898 27.75H2.56152V26.1484H3.0898C3.53137 26.1484 3.89059 26.5077 3.89059 26.9492C3.89059 27.3908 3.53137 27.75 3.0898 27.75Z" fill="#3A312A"/>
</g>
<defs>
<clipPath id="clip0_5_3755">
<rect width="40" height="40" fill="white"/>
</clipPath>
</defs>
</svg>
