<svg width="40" height="40" viewBox="0 0 40 40" fill="none" xmlns="http://www.w3.org/2000/svg">
<g clip-path="url(#clip0_5_3697)">
<path d="M27.8988 12.4961H2.87453C1.4337 12.4961 0.265625 13.6642 0.265625 15.105V27.3209C0.265625 28.7614 1.4337 29.9298 2.87453 29.9298H37.1259C38.5667 29.9298 39.7348 28.7614 39.7348 27.3209V15.105C39.7348 13.6642 38.5667 12.4961 37.1259 12.4961H27.8988Z" fill="#8AC6DD"/>
<path d="M37.1258 30.1952H2.87439C1.28941 30.1952 0 28.9057 0 27.3208V15.1049C0 13.5199 1.28941 12.2305 2.87439 12.2305H27.8987C28.0453 12.2305 28.1642 12.349 28.1642 12.496C28.1642 12.6425 28.0453 12.7614 27.8987 12.7614H2.87439C1.58221 12.7614 0.530976 13.8123 0.530976 15.1049V27.3208C0.530976 28.6126 1.58221 29.6642 2.87439 29.6642H37.1258C38.418 29.6642 39.4692 28.6129 39.4692 27.3208V15.1049C39.4692 13.8123 38.418 12.7614 37.1258 12.7614H30.2725C30.126 12.7614 30.007 12.6425 30.007 12.496C30.007 12.349 30.126 12.2305 30.2725 12.2305H37.1258C38.7108 12.2305 39.9998 13.5199 39.9998 15.1049V27.3208C40.0002 28.9057 38.7108 30.1952 37.1258 30.1952Z" fill="#3A312A"/>
<path d="M7.76628 25.6836H4.67341C3.9008 25.6836 3.27441 26.31 3.27441 27.0826V29.9297H36.7259V27.0826C36.7259 26.31 36.0995 25.6836 35.3269 25.6836H7.76628Z" fill="#D7E057"/>
<path d="M36.7258 30.195H3.27428C3.12771 30.195 3.00879 30.0761 3.00879 29.9295V27.0825C3.00879 26.1647 3.75547 25.418 4.67327 25.418H7.76614C7.91271 25.418 8.03163 25.5365 8.03163 25.6835C8.03163 25.83 7.91271 25.9489 7.76614 25.9489H4.67327C4.04827 25.9489 3.53976 26.4575 3.53976 27.0825V29.664H36.4603V27.0825C36.4603 26.4575 35.9518 25.9489 35.3268 25.9489H10.169C10.0224 25.9489 9.90352 25.83 9.90352 25.6835C9.90352 25.5365 10.0224 25.418 10.169 25.418H35.3271C36.2446 25.418 36.9916 26.1647 36.9916 27.0825V29.9295C36.9912 30.0761 36.8723 30.195 36.7258 30.195Z" fill="#3A312A"/>
<path d="M3.27441 27.9805H36.7259V29.9274H3.27441V27.9805Z" fill="#87796F"/>
<path d="M36.7258 30.1927H3.27428C3.12771 30.1927 3.00879 30.0738 3.00879 29.9272V27.9803C3.00879 27.8334 3.12771 27.7148 3.27428 27.7148H36.7258C36.8723 27.7148 36.9912 27.8334 36.9912 27.9803V29.9272C36.9912 30.0738 36.8723 30.1927 36.7258 30.1927ZM3.53976 29.6618H36.4603V28.2458H3.53976V29.6618Z" fill="#3A312A"/>
<path d="M5.78293 3.21875C5.78293 3.21875 6.38581 5.45915 8.12289 5.5632C8.12289 5.5632 5.80436 6.36381 5.7653 8.07669C5.7653 8.07669 5.30865 5.67451 3.47754 5.58844C3.47754 5.58844 5.61043 5.26522 5.78293 3.21875Z" fill="#D7E057"/>
<path d="M5.76482 8.34185C5.63864 8.34185 5.52871 8.25231 5.50451 8.12648C5.50002 8.10436 5.06272 5.9286 3.46496 5.85359C3.32876 5.84702 3.21952 5.73847 3.21226 5.60193C3.20535 5.46573 3.30283 5.34612 3.43799 5.32572C3.51577 5.31362 5.36589 5.00423 5.51834 3.19594C5.52906 3.06769 5.63069 2.96572 5.75894 2.95396C5.88892 2.94394 6.00541 3.02483 6.03895 3.14893C6.04482 3.16967 6.6159 5.20681 8.13865 5.29807C8.26517 5.30567 8.36853 5.40143 8.38582 5.52691C8.4031 5.65205 8.32947 5.77235 8.20986 5.81383C8.18843 5.82144 6.06522 6.57677 6.03065 8.08258C6.02754 8.21844 5.92279 8.32975 5.78729 8.34081C5.77968 8.3415 5.77207 8.34185 5.76482 8.34185ZM4.39486 5.55803C5.08105 5.90648 5.4976 6.57504 5.73785 7.12917C6.09633 6.4174 6.78909 5.92791 7.32145 5.63753C6.58963 5.31155 6.12087 4.63746 5.8464 4.09369C5.52906 4.86527 4.91339 5.30913 4.39486 5.55803Z" fill="#3A312A"/>
<path d="M1.94213 6.22266C1.94213 6.22266 2.36871 7.80763 3.59728 7.88092C3.59728 7.88092 1.95734 8.4475 1.92969 9.65913C1.92969 9.65913 1.60681 7.96008 0.311523 7.89924C0.311523 7.89924 1.8201 7.67074 1.94213 6.22266Z" fill="#D7E057"/>
<path d="M1.9292 9.92456C1.80303 9.92456 1.69275 9.83468 1.6689 9.70851C1.66579 9.69399 1.36712 8.21445 0.298942 8.16432C0.162741 8.15775 0.0535037 8.04886 0.0462443 7.91266C0.0393305 7.77612 0.136814 7.65685 0.271632 7.63646C0.324177 7.62816 1.57522 7.41626 1.67754 6.20013C1.68826 6.07188 1.78989 5.96955 1.91814 5.95815C2.04708 5.94639 2.16462 6.02867 2.19815 6.15311C2.20195 6.16729 2.59258 7.55488 3.61305 7.61606C3.73957 7.62367 3.84293 7.71942 3.86021 7.84491C3.8775 7.97039 3.80352 8.09069 3.68391 8.13183C3.66939 8.13701 2.21785 8.65451 2.19504 9.66495C2.19193 9.80081 2.08684 9.91246 1.95133 9.92353C1.94407 9.92422 1.93646 9.92456 1.9292 9.92456ZM1.12963 7.88432C1.50228 8.12042 1.75325 8.48512 1.91676 8.81871C2.16012 8.42359 2.539 8.13356 2.86602 7.93859C2.46122 7.71389 2.17879 7.34574 1.99177 7.01422C1.78367 7.41902 1.45803 7.70006 1.12963 7.88432Z" fill="#3A312A"/>
<path d="M1.94213 1.50391C1.94213 1.50391 2.36871 3.08854 3.59728 3.16217C3.59728 3.16217 1.95734 3.72875 1.92969 4.94004C1.92969 4.94004 1.60681 3.24099 0.311523 3.18014C0.311523 3.18014 1.8201 2.95165 1.94213 1.50391Z" fill="#D7E057"/>
<path d="M1.9292 5.20587C1.80303 5.20587 1.69275 5.11599 1.66856 4.98982C1.66579 4.9753 1.36712 3.49576 0.298943 3.44529C0.162396 3.43872 0.0531591 3.33017 0.0462454 3.19397C0.0393316 3.05742 0.13647 2.93816 0.271634 2.91777C0.323832 2.90947 1.57488 2.69756 1.6772 1.48178C1.68791 1.35319 1.78955 1.25086 1.91814 1.23945C2.04674 1.22736 2.16427 1.30997 2.19815 1.43442C2.20161 1.4486 2.59223 2.83618 3.6127 2.89737C3.73922 2.90498 3.84293 3.00073 3.85987 3.12622C3.87715 3.2517 3.80318 3.372 3.68357 3.41314C3.66939 3.41832 2.21785 3.93582 2.19469 4.94626C2.19158 5.08212 2.08649 5.19377 1.95133 5.20483C1.94407 5.20553 1.93646 5.20587 1.9292 5.20587ZM1.12963 3.16528C1.50228 3.40138 1.7529 3.76608 1.91641 4.10002C2.16012 3.7049 2.53865 3.41452 2.86602 3.2199C2.46122 2.9952 2.17845 2.62704 1.99143 2.29518C1.78367 2.69998 1.45803 2.98103 1.12963 3.16528Z" fill="#3A312A"/>
<path d="M8.58385 30.1927C8.43728 30.1927 8.31836 30.0738 8.31836 29.9272V27.9803C8.31836 27.8334 8.43728 27.7148 8.58385 27.7148C8.73042 27.7148 8.84934 27.8334 8.84934 27.9803V29.9272C8.84934 30.0738 8.73042 30.1927 8.58385 30.1927Z" fill="#3A312A"/>
<path d="M14.2919 30.1927C14.1453 30.1927 14.0264 30.0738 14.0264 29.9272V27.9803C14.0264 27.8334 14.1453 27.7148 14.2919 27.7148C14.4384 27.7148 14.5573 27.8334 14.5573 27.9803V29.9272C14.5573 30.0738 14.4384 30.1927 14.2919 30.1927Z" fill="#3A312A"/>
<path d="M19.9999 30.1927C19.8533 30.1927 19.7344 30.0738 19.7344 29.9272V27.9803C19.7344 27.8334 19.8533 27.7148 19.9999 27.7148C20.1464 27.7148 20.2654 27.8334 20.2654 27.9803V29.9272C20.2654 30.0738 20.1464 30.1927 19.9999 30.1927Z" fill="#3A312A"/>
<path d="M25.7079 30.1927C25.5613 30.1927 25.4424 30.0738 25.4424 29.9272V27.9803C25.4424 27.8334 25.5613 27.7148 25.7079 27.7148C25.8544 27.7148 25.9734 27.8334 25.9734 27.9803V29.9272C25.9734 30.0738 25.8544 30.1927 25.7079 30.1927Z" fill="#3A312A"/>
<path d="M31.4159 30.1927C31.2693 30.1927 31.1504 30.0738 31.1504 29.9272V27.9803C31.1504 27.8334 31.2693 27.7148 31.4159 27.7148C31.5624 27.7148 31.6814 27.8334 31.6814 27.9803V29.9272C31.6814 30.0738 31.5624 30.1927 31.4159 30.1927Z" fill="#3A312A"/>
<path d="M23.5136 22.0079H16.4858C16.1456 22.0079 15.8701 21.7321 15.8701 21.3919V20.3227C15.8701 19.9825 16.1456 19.707 16.4858 19.707H23.5136C23.8538 19.707 24.1293 19.9825 24.1293 20.3227V21.3919C24.1293 21.7321 23.8538 22.0079 23.5136 22.0079Z" fill="#F16C7A"/>
<path d="M23.5138 22.2733H16.486C16 22.2733 15.6045 21.8778 15.6045 21.3918V20.3226C15.6045 19.8365 16 19.4414 16.486 19.4414H23.5138C23.9999 19.4414 24.395 19.8365 24.395 20.3226V21.3918C24.395 21.8778 23.9999 22.2733 23.5138 22.2733ZM16.486 19.9724C16.2928 19.9724 16.1355 20.1297 16.1355 20.3226V21.3918C16.1355 21.585 16.2928 21.7423 16.486 21.7423H23.5138C23.7071 21.7423 23.864 21.585 23.864 21.3918V20.3226C23.864 20.1293 23.7067 19.9724 23.5138 19.9724H16.486Z" fill="#3A312A"/>
<path d="M37.1256 12.7617H34.4707C35.7629 12.7617 36.8141 13.813 36.8141 15.1051V26.3386C36.9275 26.5616 36.9911 26.8146 36.9911 27.0822V29.6644H37.1256C38.4178 29.6644 39.469 28.6129 39.469 27.321V15.1051C39.469 13.813 38.4178 12.7617 37.1256 12.7617Z" fill="#6CA8BF"/>
<path d="M4.56337 38.9249C4.48767 38.9249 4.41231 38.8924 4.35976 38.8298C4.26574 38.7171 4.2806 38.5498 4.39295 38.4558C4.84234 38.08 5.09193 37.5826 5.09608 37.0544C5.09954 36.5286 4.85894 36.0298 4.41784 35.6505L4.33453 35.5786C3.7759 35.0981 3.46927 34.4579 3.47169 33.7762C3.47446 33.0938 3.78592 32.4547 4.34939 31.9769L4.36253 31.9659C4.47384 31.8708 4.6415 31.8839 4.73691 31.9952C4.83197 32.1069 4.81884 32.2746 4.70718 32.3696L4.6937 32.381C4.24984 32.7578 4.00474 33.2535 4.00267 33.7783C4.00094 34.302 4.24154 34.7984 4.68056 35.1763L4.76422 35.2478C5.32527 35.7311 5.63155 36.3737 5.62671 37.0585C5.62187 37.7451 5.30453 38.386 4.73345 38.863C4.68402 38.9048 4.62352 38.9249 4.56337 38.9249Z" fill="#3A312A"/>
<path d="M9.71342 38.9253C9.63737 38.9253 9.56201 38.8928 9.50947 38.8302C9.41544 38.7175 9.43031 38.5502 9.543 38.4562C9.99239 38.0804 10.242 37.583 10.2458 37.0548C10.2496 36.529 10.009 36.0301 9.56789 35.6509L9.48458 35.579C8.92595 35.0985 8.61932 34.4583 8.62209 33.7766C8.62451 33.0939 8.93597 32.4547 9.49979 31.977L9.51189 31.9666C9.62285 31.8708 9.79086 31.8836 9.88627 31.9949C9.98168 32.1059 9.96889 32.2739 9.85792 32.3693L9.84444 32.3807C9.39989 32.7575 9.15479 33.2536 9.15306 33.7783C9.15099 34.302 9.39193 34.7985 9.83096 35.1763L9.91427 35.2479C10.4757 35.7311 10.7819 36.3738 10.7768 37.0586C10.7719 37.7451 10.4546 38.386 9.8835 38.863C9.83372 38.9052 9.77357 38.9253 9.71342 38.9253Z" fill="#3A312A"/>
<path d="M14.8638 38.9249C14.7881 38.9249 14.7127 38.8924 14.6599 38.8298C14.5662 38.7171 14.581 38.5498 14.6934 38.4558C15.1428 38.08 15.3924 37.5826 15.3962 37.0544C15.4 36.5286 15.1594 36.0298 14.7183 35.6505L14.635 35.5786C14.0763 35.0981 13.7701 34.4579 13.7725 33.7762C13.7749 33.0938 14.0867 32.4547 14.6502 31.9769L14.663 31.9659C14.7743 31.8708 14.9419 31.8839 15.0373 31.9952C15.1324 32.1069 15.1193 32.2746 15.0076 32.3696L14.9941 32.381C14.5503 32.7578 14.3052 33.2535 14.3031 33.7783C14.3014 34.302 14.542 34.7984 14.981 35.1763L15.0643 35.2478C15.6257 35.7311 15.932 36.3737 15.9271 37.0585C15.9223 37.7451 15.605 38.386 15.0339 38.863C14.9845 38.9048 14.924 38.9249 14.8638 38.9249Z" fill="#3A312A"/>
<path d="M20.0136 38.9251C19.9375 38.9251 19.8622 38.8926 19.8096 38.83C19.7156 38.7173 19.7305 38.55 19.8431 38.456C20.2925 38.0802 20.5421 37.5828 20.5459 37.0546C20.5497 36.5288 20.3091 36.03 19.868 35.6507L19.7847 35.5788C19.2261 35.098 18.9195 34.4578 18.9219 33.7764C18.9247 33.0937 19.2361 32.4545 19.7996 31.9768L19.8127 31.9657C19.924 31.8707 20.0917 31.8841 20.1871 31.9954C20.2822 32.1068 20.269 32.2744 20.1574 32.3698L20.1439 32.3812C19.7 32.7577 19.4549 33.2534 19.4529 33.7782C19.4511 34.3022 19.6917 34.7986 20.1308 35.1761L20.2144 35.248C20.7755 35.7309 21.0817 36.3739 21.0769 37.0584C21.0721 37.7449 20.7547 38.3862 20.1836 38.8629C20.1339 38.905 20.0734 38.9251 20.0136 38.9251Z" fill="#3A312A"/>
<path d="M25.164 38.9247C25.0879 38.9247 25.0125 38.8923 24.96 38.8297C24.866 38.717 24.8808 38.5497 24.9935 38.4557C25.4429 38.0799 25.6922 37.5824 25.6963 37.0542C25.7001 36.5284 25.4595 36.0296 25.0184 35.6504L24.9351 35.5788C24.3761 35.098 24.0699 34.4578 24.0723 33.7764C24.0747 33.0937 24.3865 32.4545 24.95 31.9768L24.9631 31.9657C25.0744 31.8707 25.2421 31.8841 25.3372 31.9954C25.4326 32.1068 25.4191 32.2744 25.3078 32.3698L25.2939 32.3812C24.8504 32.7577 24.6053 33.2534 24.6033 33.7782C24.6012 34.3022 24.8421 34.7986 25.2811 35.1761L25.3645 35.248C25.9259 35.7309 26.2321 36.3739 26.2273 37.0584C26.2221 37.7449 25.9051 38.3862 25.334 38.8632C25.2843 38.9047 25.2238 38.9247 25.164 38.9247Z" fill="#3A312A"/>
<path d="M30.3144 38.925C30.2383 38.925 30.1629 38.8925 30.1104 38.83C30.0164 38.7173 30.0312 38.5499 30.1439 38.4559C30.5933 38.0802 30.8429 37.5827 30.8467 37.0545C30.8505 36.5287 30.6099 36.0299 30.1688 35.6507L30.0855 35.5788C29.5265 35.0983 29.2203 34.458 29.2227 33.7763C29.2251 33.094 29.5369 32.4548 30.1007 31.977L30.1128 31.9663C30.2241 31.8709 30.3918 31.8837 30.4872 31.9947C30.583 32.106 30.5702 32.2736 30.4588 32.3691L30.4454 32.3805C30.0008 32.7576 29.7557 33.2537 29.754 33.7781C29.7519 34.3018 29.9929 34.7985 30.4319 35.176L30.5152 35.2479C31.0766 35.7309 31.3829 36.3738 31.378 37.0583C31.3732 37.7448 31.0559 38.3861 30.4848 38.8628C30.4347 38.905 30.3742 38.925 30.3144 38.925Z" fill="#3A312A"/>
<path d="M35.4644 38.9251C35.3887 38.9251 35.3133 38.8926 35.2608 38.83C35.1668 38.7173 35.1816 38.55 35.294 38.456C35.7434 38.0802 35.993 37.5828 35.9971 37.0546C36.0006 36.5288 35.7603 36.03 35.3192 35.6507L35.2356 35.5788C34.6769 35.098 34.3706 34.4578 34.3731 33.7764C34.3755 33.0937 34.6873 32.4545 35.2508 31.9768L35.2636 31.9657C35.3752 31.8707 35.5429 31.8841 35.6379 31.9954C35.7333 32.1068 35.7199 32.2744 35.6085 32.3698L35.5947 32.3812C35.1512 32.7577 34.9061 33.2534 34.904 33.7782C34.902 34.3022 35.1429 34.7986 35.5819 35.1761L35.6652 35.248C36.2266 35.7309 36.5329 36.3739 36.5281 37.0584C36.5229 37.7449 36.2056 38.3862 35.6348 38.8629C35.585 38.905 35.5245 38.9251 35.4644 38.9251Z" fill="#3A312A"/>
</g>
<defs>
<clipPath id="clip0_5_3697">
<rect width="40" height="40" fill="white"/>
</clipPath>
</defs>
</svg>
