<svg width="123" height="43" viewBox="0 0 123 43" fill="none" xmlns="http://www.w3.org/2000/svg">
<path d="M23.1919 38.4509C28.3382 26.6811 21.9853 21.9531 21.9853 21.9531C25.3713 25.339 25.3716 30.8294 21.9853 34.2155C19.2158 36.985 15.0394 37.4876 11.7578 35.7272C12.3249 36.6324 12.9986 37.491 13.7862 38.2785C19.4157 43.9082 28.5445 43.9082 34.1741 38.2785C34.1741 38.2785 28.9855 41.6069 23.1919 38.4509Z" fill="#3094CE"/>
<path d="M34.8573 32.1119C30.174 20.1501 22.3389 21.2994 22.3389 21.2994C27.1274 21.2992 31.0093 25.1812 31.0093 29.97C31.0095 33.887 28.4118 37.1953 24.8467 38.2709C25.888 38.5098 26.9711 38.6406 28.0854 38.6407C36.0464 38.6409 42.5013 32.1857 42.5017 24.224C42.5017 24.224 41.1859 30.2467 34.8573 32.1119Z" fill="#3EA8D7"/>
<path d="M38.6439 19.1271C26.8738 13.9802 22.1465 20.3333 22.1465 20.3333C25.5324 16.9472 31.0223 16.9472 34.4083 20.3333C37.1783 23.1033 37.6807 27.2792 35.9201 30.5608C36.8258 29.9934 37.6839 29.3201 38.4717 28.5324C44.1017 22.903 44.1009 13.774 38.4715 8.14453C38.4715 8.14453 41.7998 13.3333 38.6439 19.1271Z" fill="#55BCE1"/>
<path d="M10.4941 34.8586C22.4555 30.175 21.3063 22.3398 21.3063 22.3398C21.3063 27.1286 17.4245 31.0105 12.6357 31.0105C8.71896 31.0103 5.41031 28.4129 4.3345 24.8474C4.09536 25.889 3.96484 26.9721 3.96484 28.0861C3.96484 36.0476 10.4199 42.5022 18.3817 42.5023C18.3817 42.5023 12.359 41.187 10.4941 34.8586Z" fill="#1E84C5"/>
<path d="M19.5018 4.04997C14.3556 15.8197 20.7083 20.5477 20.7083 20.5477C17.3222 17.1614 17.3219 11.6713 20.7082 8.28496C23.4778 5.51541 27.6538 5.01269 30.9358 6.77346C30.369 5.86795 29.6948 5.00959 28.9073 4.22198C23.2779 -1.40722 14.1493 -1.40753 8.51953 4.22229C8.51953 4.22229 13.7083 0.893819 19.5018 4.04997Z" fill="#55BCE1"/>
<path d="M7.83643 10.392C12.5197 22.3538 20.3549 21.2044 20.3549 21.2044C15.5662 21.2044 11.6845 17.3228 11.6843 12.5338C11.6846 8.61686 14.2818 5.30836 17.8469 4.23293C16.8056 3.99388 15.7226 3.86328 14.6086 3.86328C6.64735 3.86289 0.192538 10.3183 0.192383 18.2799C0.192383 18.2799 1.5081 12.2572 7.83643 10.392Z" fill="#3EA8D7"/>
<path d="M4.04996 23.3716C15.8198 28.5185 20.5474 22.1655 20.5474 22.1655C17.1618 25.5516 11.6716 25.5514 8.28525 22.165C5.5157 19.3954 5.01283 15.2192 6.77367 11.9375C5.86825 12.5051 5.00996 13.1788 4.22228 13.9664C-1.40754 19.5957 -1.40731 28.7246 4.22228 34.3542C4.22228 34.3542 0.89412 29.1656 4.04996 23.3716Z" fill="#3094CE"/>
<path d="M32.1983 7.64366C20.2374 12.3275 21.3863 20.1624 21.3863 20.1624C21.3863 15.3737 25.2682 11.4917 30.057 11.4917C33.9737 11.4923 37.2825 14.0893 38.3587 17.6548C38.5974 16.6137 38.7279 15.5304 38.7278 14.4163C38.7279 6.4549 32.273 0 24.311 0C24.311 0 30.3336 1.31541 32.1983 7.64366Z" fill="#64CAE5"/>
<path d="M64.7904 19.25V12.2683H67.1611L68.7046 16.4244H68.7384L70.2819 12.2683H72.6527V19.25H70.8625V15.2051H70.8286L69.2707 19.25H68.1724L66.6144 15.2051H66.5805V19.25H64.7904ZM73.2865 19.25L75.5654 12.2683H78.1394L80.4182 19.25H78.2603L77.8974 17.8614H75.8073L75.4444 19.25H73.2865ZM76.833 13.9327L76.1847 16.4147H77.52L76.8717 13.9327H76.833ZM83.5728 19.3758C81.7633 19.3758 80.6408 18.6017 80.5682 17.2227L80.5634 17.1308H82.4503L82.46 17.1743C82.5422 17.5517 83.0164 17.8033 83.597 17.8033C84.2115 17.8033 84.5889 17.5517 84.5889 17.2034V17.1985C84.5889 16.8695 84.3082 16.7341 83.5341 16.5937L82.8325 16.468C81.4439 16.2212 80.6843 15.5196 80.6843 14.4358V14.431C80.6843 13.0279 81.8939 12.1425 83.5486 12.1425C85.4162 12.1425 86.4081 12.9747 86.4661 14.281L86.471 14.3875H84.584L84.5792 14.3391C84.5405 13.9568 84.1341 13.7149 83.5728 13.7149C83.0067 13.7149 82.7164 13.9617 82.7164 14.281V14.2859C82.7164 14.6003 83.0164 14.7503 83.7131 14.8761L84.4147 15.0019C85.9097 15.2729 86.621 15.8825 86.621 17.0147V17.0195C86.621 18.4613 85.4985 19.3758 83.5728 19.3758ZM88.7644 19.25V13.8939H86.9258V12.2683H92.6544V13.8939H90.8158V19.25H88.7644ZM93.356 19.25V12.2683H98.2814V13.8939H95.4074V15.0068H98.1024V16.5163H95.4074V17.6243H98.2814V19.25H93.356ZM99.2394 19.25V12.2683H102.384C104.179 12.2683 105.157 13.1101 105.157 14.6584V14.6681C105.157 15.539 104.712 16.3228 104.034 16.6518L105.36 19.25H103.067L101.963 16.9566H101.291V19.25H99.2394ZM101.291 15.51H102.147C102.699 15.51 103.067 15.1664 103.067 14.6536V14.6439C103.067 14.1359 102.689 13.7827 102.147 13.7827H101.291V15.51Z" fill="black"/>
<path d="M47.8368 31.25V24.2683H49.8882V27.2293H49.927L52.0849 24.2683H54.2379L51.9397 27.3648L54.3444 31.25H51.9591L50.435 28.6808L49.8882 29.4211V31.25H47.8368ZM57.886 31.3758C55.7233 31.3758 54.3734 29.992 54.3734 27.7616V27.7519C54.3734 25.5262 55.733 24.1425 57.886 24.1425C60.0536 24.1425 61.4084 25.5311 61.4084 27.7519V27.7616C61.4084 29.9872 60.0585 31.3758 57.886 31.3758ZM57.886 29.7017C58.7715 29.7017 59.3182 28.9518 59.3182 27.7616V27.7519C59.3182 26.552 58.7569 25.8165 57.886 25.8165C57.0296 25.8165 56.4636 26.5471 56.4636 27.7519V27.7616C56.4636 28.9663 57.0248 29.7017 57.886 29.7017ZM62.2067 31.25V24.2683H63.9146L66.3822 27.839H66.416V24.2683H68.4675V31.25H66.7789L64.292 27.6212H64.2581V31.25H62.2067ZM69.4352 31.25V24.2683H72.4204C74.5348 24.2683 75.7831 25.4682 75.7831 27.6987V27.7083C75.7831 29.9436 74.5348 31.25 72.4204 31.25H69.4352ZM71.4866 29.6195H72.1301C73.1559 29.6195 73.6929 28.9953 73.6929 27.7083V27.6987C73.6929 26.5278 73.1075 25.8988 72.1301 25.8988H71.4866V29.6195ZM76.5862 31.25V24.2683H78.6377V31.25H76.5862ZM81.1778 31.25V25.8939H79.3393V24.2683H85.0679V25.8939H83.2293V31.25H81.1778ZM88.5853 31.3758C86.7758 31.3758 85.6533 30.6017 85.5807 29.2227L85.5759 29.1308H87.4629L87.4725 29.1743C87.5548 29.5517 88.0289 29.8033 88.6095 29.8033C89.224 29.8033 89.6014 29.5517 89.6014 29.2034V29.1985C89.6014 28.8695 89.3208 28.7341 88.5466 28.5937L87.8451 28.468C86.4565 28.2212 85.6969 27.5196 85.6969 26.4358V26.431C85.6969 25.0279 86.9064 24.1425 88.5612 24.1425C90.4288 24.1425 91.4206 24.9747 91.4787 26.281L91.4835 26.3875H89.5966L89.5917 26.3391C89.553 25.9568 89.1466 25.7149 88.5853 25.7149C88.0193 25.7149 87.729 25.9617 87.729 26.281V26.2859C87.729 26.6003 88.0289 26.7503 88.7257 26.8761L89.4272 27.0019C90.9223 27.2729 91.6335 27.8825 91.6335 29.0147V29.0195C91.6335 30.4613 90.511 31.3758 88.5853 31.3758ZM92.398 31.25V24.2683H94.4494V31.25H92.398ZM98.7604 31.3758C96.5976 31.3758 95.2478 29.992 95.2478 27.7616V27.7519C95.2478 25.5262 96.6073 24.1425 98.7604 24.1425C100.928 24.1425 102.283 25.5311 102.283 27.7519V27.7616C102.283 29.9872 100.933 31.3758 98.7604 31.3758ZM98.7604 29.7017C99.6458 29.7017 100.193 28.9518 100.193 27.7616V27.7519C100.193 26.552 99.6313 25.8165 98.7604 25.8165C97.904 25.8165 97.3379 26.5471 97.3379 27.7519V27.7616C97.3379 28.9663 97.8992 29.7017 98.7604 29.7017ZM103.081 31.25V24.2683H104.789L107.257 27.839H107.29V24.2683H109.342V31.25H107.653L105.166 27.6212H105.132V31.25H103.081ZM110.31 31.25V24.2683H115.235V25.8939H112.361V27.0068H115.056V28.5163H112.361V29.6243H115.235V31.25H110.31ZM116.193 31.25V24.2683H119.338C121.133 24.2683 122.11 25.1101 122.11 26.6584V26.6681C122.11 27.539 121.665 28.3228 120.988 28.6518L122.313 31.25H120.02L118.917 28.9566H118.244V31.25H116.193ZM118.244 27.51H119.101C119.652 27.51 120.02 27.1664 120.02 26.6536V26.6439C120.02 26.1359 119.643 25.7827 119.101 25.7827H118.244V27.51Z" fill="#1E84C5"/>
</svg>
